<?xml version="1.0" encoding="UTF-8"?>
<svg id="_layer_2" data-name="layer 2" xmlns="http://www.w3.org/2000/svg" viewBox="0 0 92.12 92.12" width="current" height="current">
  <defs>
    <style>
      .cls-2 {
        fill: current;
        stroke-width: 0px;
      }
    </style>
  </defs>
  <g id="Layer_1" data-name="Layer 1">
    <path class="cls-2" d="m77.48,0H14.63C6.55,0,0,6.55,0,14.63v62.85c0,8.08,6.55,14.63,14.63,14.63h62.85c8.08,0,14.63-6.55,14.63-14.63V14.63c0-8.08-6.55-14.63-14.63-14.63Zm-5.38,31.89l-32.26,32.26c-.52.52-1.23.81-1.96.81-.08,0-.16,0-.24,0-.82-.07-1.56-.5-2.03-1.16l-14.06-19.88c-.89-1.25-.59-2.99.66-3.87,1.25-.89,2.99-.59,3.87.66l12.16,17.19,29.93-29.93c1.08-1.08,2.84-1.08,3.93,0,1.08,1.08,1.08,2.84,0,3.93Z"/>
  </g>
</svg>