<?xml version="1.0" encoding="UTF-8"?>
<svg id="_레이어_2" data-name="레이어 2" xmlns="http://www.w3.org/2000/svg" viewBox="0 0 92.12 92.12" width="current" height="current">
  <defs>
    <style>
      .trash {
        fill: #aeacab;
      }

      .trash, .background {
        stroke-width: 0px;
      }

      .background {
        fill: #f5f5f5;
      }
    </style>
  </defs>
  <g id="Layer_1" data-name="Layer 1">
    <path class="background" d="m29.17,0h33.77c16.1,0,29.17,13.07,29.17,29.17v33.77c0,16.1-13.07,29.17-29.17,29.17H29.17C13.07,92.12,0,79.04,0,62.94V29.17C0,13.07,13.07,0,29.17,0Z"/>
    <g>
      <path class="trash" d="m73.42,30.69H18.7c-1.52,0-2.75-1.23-2.75-2.75s1.23-2.75,2.75-2.75h54.73c1.52,0,2.75,1.23,2.75,2.75s-1.23,2.75-2.75,2.75Z"/>
      <path class="trash" d="m61.58,20.96h-31.05c-1.52,0-2.75-1.23-2.75-2.75s1.23-2.75,2.75-2.75h31.05c1.52,0,2.75,1.23,2.75,2.75s-1.23,2.75-2.75,2.75Z"/>
      <path class="trash" d="m67.54,76.65H24.57c-1.52,0-2.75-1.23-2.75-2.75v-38.51c0-1.52,1.23-2.75,2.75-2.75s2.75,1.23,2.75,2.75v35.76h37.47v-35.76c0-1.52,1.23-2.75,2.75-2.75s2.75,1.23,2.75,2.75v38.51c0,1.52-1.23,2.75-2.75,2.75Z"/>
      <path class="trash" d="m46.06,64.43c-1.52,0-2.75-1.23-2.75-2.75v-20.55c0-1.52,1.23-2.75,2.75-2.75s2.75,1.23,2.75,2.75v20.55c0,1.52-1.23,2.75-2.75,2.75Z"/>
      <path class="trash" d="m56.6,64.43c-1.52,0-2.75-1.23-2.75-2.75v-20.55c0-1.52,1.23-2.75,2.75-2.75s2.75,1.23,2.75,2.75v20.55c0,1.52-1.23,2.75-2.75,2.75Z"/>
      <path class="trash" d="m35.52,64.43c-1.52,0-2.75-1.23-2.75-2.75v-20.55c0-1.52,1.23-2.75,2.75-2.75s2.75,1.23,2.75,2.75v20.55c0,1.52-1.23,2.75-2.75,2.75Z"/>
    </g>
  </g>
</svg>